<svg width="118" height="78" viewBox="0 0 118 78" fill="none" xmlns="http://www.w3.org/2000/svg">
<path d="M57.525 0.5C55.0728 0.5 53.1 2.33906 53.1 4.625C53.1 6.91094 55.0728 8.75 57.525 8.75H62.2634L68.6428 19.75H41.0972L36.0453 13.2188C35.2156 12.1359 33.8697 11.5 32.45 11.5H22.125C19.6728 11.5 17.7 13.3391 17.7 15.625C17.7 17.9109 19.6728 19.75 22.125 19.75H30.1822L34.2569 25.0266L29.3525 34.1531C27.5087 33.7234 25.5728 33.5 23.6 33.5C10.5647 33.5 0 43.3484 0 55.5C0 67.6516 10.5647 77.5 23.6 77.5C35.6397 77.5 45.5591 69.0953 47.0156 58.25H56.05C57.6172 58.25 59.0553 57.4766 59.8666 56.2219L75.5016 31.5578L79.5025 38.45C74.1925 42.4891 70.8 48.625 70.8 55.5C70.8 67.6516 81.3647 77.5 94.4 77.5C107.435 77.5 118 67.6516 118 55.5C118 43.3484 107.435 33.5 94.4 33.5C91.9109 33.5 89.5141 33.8609 87.2647 34.5312L69.2144 3.3875C68.1819 1.6 66.1906 0.5 64.015 0.5H57.525ZM84.5544 47.1984L90.5097 57.4594C91.6712 59.4703 94.3631 60.2094 96.5019 59.1266C98.6406 58.0438 99.4519 55.5344 98.2903 53.5406L92.335 43.2797C92.9987 43.1766 93.6994 43.125 94.4 43.125C101.738 43.125 107.675 48.6594 107.675 55.5C107.675 62.3406 101.738 67.875 94.4 67.875C87.0619 67.875 81.125 62.3406 81.125 55.5C81.125 52.3031 82.4156 49.3984 84.5544 47.1984ZM24.5588 58.25H36.5431C35.1972 63.7672 29.9056 67.875 23.6 67.875C16.2619 67.875 10.325 62.3406 10.325 55.5C10.325 48.6594 16.2619 43.125 23.6 43.125C23.9134 43.125 24.2269 43.1422 24.5403 43.1594L20.0784 51.4953C18.4191 54.6063 20.8344 58.2672 24.5588 58.2672V58.25ZM30.7722 50L40.12 32.5891L53.5609 49.9828L53.5425 50H30.7722ZM47.4766 28H67.4813L58.4469 42.2312L47.4581 28H47.4766Z" fill="black"/>
</svg>
