<svg width="70" height="68" viewBox="0 0 70 68" fill="none" xmlns="http://www.w3.org/2000/svg">
<path d="M28 3.97109L30.9167 1.14219C31.6458 0.425 32.8125 0 34.0339 0C36.1667 0 37.9167 1.275 37.9167 2.82891V5.77734C37.9167 7.51719 38.901 9.19062 40.6328 10.3859L56.0729 21.1172C64.9688 27.3062 70 35.8859 70 44.8508C70 57.6406 55.7812 68 38.2266 68H35C15.6771 68 0 56.5781 0 42.5V41.9953C0 35.5141 3.53646 29.2984 9.82552 24.7164L10.4635 24.2516C11.2292 23.6938 12.2865 23.375 13.3802 23.375C15.6589 23.375 17.5 24.7164 17.5 26.3766V38.25C17.5 42.9383 22.7318 46.75 29.1667 46.75C35.6016 46.75 40.8333 42.9383 40.8333 38.25V37.732C40.8333 35.3414 39.5208 33.0438 37.2057 31.357L30.1693 26.2305C25.7943 23.043 23.3333 18.7 23.3333 14.1844C23.3333 10.5055 24.974 6.90625 28 3.97109Z" fill="black"/>
</svg>
