<svg width="44" height="38" viewBox="0 0 44 38" fill="none" xmlns="http://www.w3.org/2000/svg">
<path d="M25.2857 3.1875C25.2857 1.59727 23.8174 0.3125 22 0.3125C20.1826 0.3125 18.7143 1.59727 18.7143 3.1875V16.125H3.92857C2.11116 16.125 0.642853 17.4098 0.642853 19C0.642853 20.5902 2.11116 21.875 3.92857 21.875H18.7143V34.8125C18.7143 36.4027 20.1826 37.6875 22 37.6875C23.8174 37.6875 25.2857 36.4027 25.2857 34.8125V21.875H40.0714C41.8888 21.875 43.3571 20.5902 43.3571 19C43.3571 17.4098 41.8888 16.125 40.0714 16.125H25.2857V3.1875Z" fill="#11EC34"/>
</svg>
