<svg width="36" height="32" viewBox="0 0 36 32" fill="none" xmlns="http://www.w3.org/2000/svg">
<path d="M0.753338 13.9022C-0.251125 14.9276 -0.251125 16.5929 0.753338 17.6183L13.6105 30.7433C14.6149 31.7686 16.2462 31.7686 17.2507 30.7433C18.2551 29.7179 18.2551 28.0526 17.2507 27.0272L8.77299 18.3811L33.4266 18.3811C34.8489 18.3811 35.998 17.2081 35.998 15.7561C35.998 14.3042 34.8489 13.1311 33.4266 13.1311L8.78102 13.1311L17.2426 4.48505C18.2471 3.45966 18.2471 1.79443 17.2426 0.769035C16.2382 -0.256355 14.6069 -0.256355 13.6024 0.769035L0.745304 13.894L0.753338 13.9022Z" fill="black"/>
</svg>
