<svg width="17" height="17" viewBox="0 0 17 17" fill="none" xmlns="http://www.w3.org/2000/svg">
<path d="M3.25 0.25C2.45435 0.25 1.69129 0.566071 1.12868 1.12868C0.566071 1.69129 0.25 2.45435 0.25 3.25V13.75C0.25 14.5456 0.566071 15.3087 1.12868 15.8713C1.69129 16.4339 2.45435 16.75 3.25 16.75H13.75C14.5456 16.75 15.3087 16.4339 15.8713 15.8713C16.4339 15.3087 16.75 14.5456 16.75 13.75V8.5C16.75 8.30109 16.671 8.11032 16.5303 7.96967C16.3897 7.82902 16.1989 7.75 16 7.75C15.8011 7.75 15.6103 7.82902 15.4697 7.96967C15.329 8.11032 15.25 8.30109 15.25 8.5V13.75C15.25 14.1478 15.092 14.5294 14.8107 14.8107C14.5294 15.092 14.1478 15.25 13.75 15.25H3.25C2.85218 15.25 2.47064 15.092 2.18934 14.8107C1.90804 14.5294 1.75 14.1478 1.75 13.75V3.25C1.75 2.85218 1.90804 2.47064 2.18934 2.18934C2.47064 1.90804 2.85218 1.75 3.25 1.75H8.5C8.69891 1.75 8.88968 1.67098 9.03033 1.53033C9.17098 1.38968 9.25 1.19891 9.25 1C9.25 0.801088 9.17098 0.610322 9.03033 0.46967C8.88968 0.329018 8.69891 0.25 8.5 0.25H3.25Z" fill="black"/>
</svg>
