<svg width="62" height="53" viewBox="0 0 62 53" fill="none" xmlns="http://www.w3.org/2000/svg">
<path d="M30.7159 26.4095C35.371 26.4095 39.8354 25.0278 43.127 22.5683C46.4186 20.1088 48.2679 16.773 48.2679 13.2948C48.2679 9.81658 46.4186 6.48082 43.127 4.02134C39.8354 1.56186 35.371 0.180145 30.7159 0.180145C26.0608 0.180145 21.5964 1.56186 18.3048 4.02134C15.0132 6.48082 13.164 9.81658 13.164 13.2948C13.164 16.773 15.0132 20.1088 18.3048 22.5683C21.5964 25.0278 26.0608 26.4095 30.7159 26.4095ZM24.4493 31.3275C10.9425 31.3275 0 39.5036 0 49.5958C0 51.2761 1.82376 52.6388 4.0726 52.6388H57.3592C59.6081 52.6388 61.4318 51.2761 61.4318 49.5958C61.4318 39.5036 50.4893 31.3275 36.9825 31.3275H24.4493Z" fill="black"/>
</svg>
